<svg width="80" height="24" viewBox="0 0 80 24" fill="none" xmlns="http://www.w3.org/2000/svg">
<path d="M8.83156 7.39661H2.40274H0V9.80072V20.5891H2.40274V9.80072H8.83156V7.39661Z" fill="black"/>
<path d="M43.2172 3H40.8145V20.589H43.2172V3Z" fill="black"/>
<path d="M36.0086 7.39658V9.00344C36.0086 9.00344 35.247 7.98526 33.7362 7.43501C33.0268 7.19075 32.2679 7.05627 31.4762 7.05627C27.6463 7.05627 24.541 10.1616 24.541 13.9914C24.541 17.8213 27.6463 20.9266 31.4762 20.9266C32.2679 20.9266 33.0282 20.7921 33.7362 20.5479C35.247 19.999 36.0072 18.9808 36.0086 18.9794V20.5863H38.4113V7.39658H36.0086ZM31.4762 18.5856C28.939 18.5856 26.882 16.5287 26.882 13.9914C26.882 11.4542 28.939 9.39727 31.4762 9.39727C34.0134 9.39727 36.0703 11.4542 36.0703 13.9914C36.0703 16.5287 34.0134 18.5856 31.4762 18.5856Z" fill="black"/>
<path d="M64.1954 10.1437C63.4256 8.32005 61.7295 7.05762 59.5834 7.05762C57.7611 7.05762 56.205 7.97014 55.2774 9.36019C54.4952 7.96877 53.1285 7.05762 51.3048 7.05762C49.9079 7.05762 48.8046 7.64218 48.0238 8.56568V7.39793H45.6211V20.589H48.0238V12.6453C48.0238 12.0346 48.1062 11.5571 48.2557 11.2031C48.7045 10.1424 49.7542 9.39861 50.9768 9.39861C52.1995 9.39861 53.2506 10.1424 53.6979 11.2031C53.8475 11.5571 53.9298 12.0346 53.9298 12.6453V20.589H56.3326V12.6453C56.3326 12.0346 56.4149 11.5571 56.5645 11.2031C57.0132 10.1424 58.0629 9.39861 59.2856 9.39861C60.5082 9.39861 61.5593 10.1424 62.0067 11.2031C62.1563 11.5571 62.2386 12.0346 62.2386 12.6453V20.589H64.6413V13.0226C64.6413 11.8549 64.4835 10.8339 64.1926 10.1437H64.1954Z" fill="black"/>
<path d="M21.2686 9.04189C18.5996 6.39489 14.0356 6.39489 11.3681 9.04189C8.72106 11.7108 8.72106 16.2748 11.3681 18.9424C12.7019 20.2652 14.5104 20.928 16.319 20.928C18.2717 20.928 20.2243 20.2666 21.6651 18.9424C22.0754 18.5596 22.424 18.1355 22.7149 17.6841L20.555 16.4367C20.3629 16.7359 20.1324 17.0158 19.8607 17.271C18.9056 18.1479 17.613 18.5856 16.3204 18.5856C15.1224 18.5856 13.9245 18.1479 13.0408 17.271C12.4288 16.6549 12.0363 15.8837 11.8511 15.0686H23.1691C23.4847 12.9225 22.8576 10.6419 21.2699 9.04189H21.2686ZM11.8497 12.917C12.035 12.1019 12.4274 11.3307 13.0394 10.7146C14.8068 8.96093 17.8298 8.9623 19.5972 10.7146C20.2092 11.3321 20.6044 12.1019 20.7869 12.917H11.8497Z" fill="black"/>
<path d="M78.0205 9.04189C75.3516 6.39489 70.7876 6.39489 68.12 9.04189C65.473 11.7108 65.473 16.2748 68.12 18.9424C69.4538 20.2652 71.2624 20.928 73.071 20.928C75.0236 20.928 76.9763 20.2666 78.4171 18.9424C78.8274 18.5596 79.1759 18.1355 79.4668 17.6841L77.307 16.4367C77.1149 16.7359 76.8843 17.0158 76.6126 17.271C75.6576 18.1479 74.365 18.5856 73.0723 18.5856C71.8744 18.5856 70.6764 18.1479 69.7927 17.271C69.1807 16.6549 68.7883 15.8837 68.603 15.0686H79.921C80.2367 12.9225 79.6096 10.6419 78.0219 9.04189H78.0205ZM68.6017 12.917C68.7869 12.1019 69.1794 11.3307 69.7914 10.7146C71.5588 8.96093 74.5818 8.9623 76.3492 10.7146C76.9612 11.3321 77.3564 12.1019 77.5389 12.917H68.6017Z" fill="black"/>
</svg>
